<svg id="Capa_1" data-name="Capa 1" xmlns="http://www.w3.org/2000/svg" viewBox="0 0 474.57 474.86"><defs><style>.cls-1{fill:#fff;}</style></defs><path d="M295.74,580C160.67,578.51,57.92,470,59,340.94c1.09-133.22,108.38-236.38,237.78-235.85,134.8.56,237.84,109.38,236.78,238.87C532.43,477.16,425.19,579.55,295.74,580ZM254.53,389.1c6.11-7.9,11.45-14.45,16.36-21.29a10,10,0,0,1,9.16-4.64c38,.15,76,.1,114,.07,2.65,0,5.31-.36,8-.57,4.5-.37,7.27-3.08,9-7q20.54-46.47,41-93a12.6,12.6,0,0,0-1.14-12.8c-3.46-5.25-8.65-6.14-14.41-6.13q-65.24.07-130.46,0c-18,0-36-.08-54,.07-4.09,0-6.41-1.05-7.47-5.4a122.73,122.73,0,0,0-5.65-17c-.7-1.74-3-4-4.61-4-14.16-.31-28.32-.16-42.48-.21-2.54,0-3.58.92-3.52,3.54.14,6.33.1,12.66.05,19,0,2.9,1.1,4.17,4.18,4.1,7.16-.17,14.33,0,21.49-.1,3.57-.07,5.25,1.37,6.35,4.85,4.14,13.15,8.6,26.2,13,39.27,6.15,18.27,12.49,36.48,18.37,54.83a10.67,10.67,0,0,1-1.4,8.09c-5.23,7.7-11,15-16.64,22.46-6.88,9.05-7.45,18.88-2.44,28.65,4.87,9.51,13.35,14,24.07,14.05q72,0,144,0c7.34,0,14.68-.25,22,.09,4.54.2,5.83-1.48,5.52-5.78a100.11,100.11,0,0,1,0-14.49c.39-5.09-1.5-6.47-6.54-6.46-52.65.18-105.29.12-157.94.1C260.17,389.48,258.08,389.28,254.53,389.1Zm172,66.72c0-14.95-11.16-26.05-26.16-26.12a26,26,0,0,0-26.39,26c-.09,15.07,11.38,26.57,26.43,26.5A26.1,26.1,0,0,0,426.57,455.82Zm-172,26.38A26.69,26.69,0,0,0,281.13,456c.08-14.59-12-26.29-26.79-26.34-16.22-.06-26.25,14.39-26.35,25.92A26.44,26.44,0,0,0,254.57,482.2Zm-94.85-186c-12.66,0-25.32.09-38-.06-3.09,0-4.67.67-4.67,4.06s2.08,3.57,4.63,3.57q38.22,0,76.44,0c2.67,0,5,0,4.95-3.77-.06-3.6-2.07-3.85-4.92-3.83C185.36,296.23,172.54,296.18,159.72,296.17Zm-9,54.17c12.66,0,25.32,0,38,0,2.55,0,4.63-.05,4.61-3.54s-1.57-4.09-4.66-4.07q-38.23.15-76.45,0c-2.86,0-4.84.25-4.91,3.84-.06,3.83,2.28,3.75,5,3.74C125.06,350.3,137.89,350.33,150.71,350.34Zm30-29.61c-12.32,0-24.64.06-37,0-2.73,0-4.46.39-4.57,3.65s1.48,3.94,4.28,3.93q37.47-.07,74.92,0c2.78,0,4.42-.66,4.33-3.9s-1.81-3.7-4.54-3.68C205.68,320.79,193.2,320.73,180.71,320.73Z" transform="translate(-58.96 -105.09)"/><path class="cls-1" d="M254.53,389.1c3.55.18,5.64.38,7.73.38,52.65,0,105.29.08,157.94-.1,5,0,6.93,1.37,6.54,6.46a100.11,100.11,0,0,0,0,14.49c.31,4.3-1,6-5.52,5.78-7.31-.34-14.65-.09-22-.09q-72,0-144,0c-10.72,0-19.2-4.54-24.07-14.05-5-9.77-4.44-19.6,2.44-28.65,5.63-7.42,11.41-14.76,16.64-22.46a10.67,10.67,0,0,0,1.4-8.09c-5.88-18.35-12.22-36.56-18.37-54.83-4.4-13.07-8.86-26.12-13-39.27-1.1-3.48-2.78-4.92-6.35-4.85-7.16.14-14.33-.07-21.49.1-3.08.07-4.2-1.2-4.18-4.1,0-6.33.09-12.66-.05-19-.06-2.62,1-3.55,3.52-3.54,14.16.05,28.32-.1,42.48.21,1.61,0,3.91,2.27,4.61,4a122.73,122.73,0,0,1,5.65,17c1.06,4.35,3.38,5.43,7.47,5.4,18-.15,36-.07,54-.07q65.24,0,130.46,0c5.76,0,10.95.88,14.41,6.13a12.6,12.6,0,0,1,1.14,12.8q-20.5,46.49-41,93c-1.72,3.89-4.49,6.6-9,7-2.65.21-5.31.56-8,.57-38,0-76,.08-114-.07a10,10,0,0,0-9.16,4.64C266,374.65,260.64,381.2,254.53,389.1Z" transform="translate(-58.96 -105.09)"/><path class="cls-1" d="M426.57,455.82a26.1,26.1,0,0,1-26.12,26.39c-15.05.07-26.52-11.43-26.43-26.5a26,26,0,0,1,26.39-26C415.41,429.77,426.53,440.87,426.57,455.82Z" transform="translate(-58.96 -105.09)"/><path class="cls-1" d="M254.57,482.2A26.44,26.44,0,0,1,228,455.58c.1-11.53,10.13-26,26.35-25.92,14.75,0,26.87,11.75,26.79,26.34A26.69,26.69,0,0,1,254.57,482.2Z" transform="translate(-58.96 -105.09)"/><path class="cls-1" d="M159.72,296.18c12.82,0,25.64.05,38.46-.05,2.85,0,4.86.23,4.92,3.83.07,3.8-2.28,3.78-4.95,3.77q-38.22,0-76.44,0c-2.55,0-4.62-.12-4.63-3.57s1.58-4.1,4.67-4.06C134.4,296.26,147.06,296.17,159.72,296.18Z" transform="translate(-58.96 -105.09)"/><path class="cls-1" d="M150.71,350.33c-12.82,0-25.65,0-38.47,0-2.68,0-5,.09-5-3.74.07-3.59,2-3.85,4.91-3.84q38.22.11,76.45,0c3.09,0,4.65.7,4.66,4.07s-2.06,3.55-4.61,3.54C176,350.31,163.37,350.34,150.71,350.33Z" transform="translate(-58.96 -105.09)"/><path class="cls-1" d="M180.71,320.73c12.49,0,25,.06,37.46,0,2.73,0,4.46.42,4.54,3.68s-1.55,3.9-4.33,3.9q-37.45-.07-74.92,0c-2.8,0-4.38-.7-4.28-3.93s1.84-3.67,4.57-3.65C156.07,320.79,168.39,320.73,180.71,320.73Z" transform="translate(-58.96 -105.09)"/></svg>