<?xml version="1.0" standalone="no"?>
<!DOCTYPE svg PUBLIC "-//W3C//DTD SVG 20010904//EN"
 "http://www.w3.org/TR/2001/REC-SVG-20010904/DTD/svg10.dtd">
<svg version="1.0" xmlns="http://www.w3.org/2000/svg"
 width="700.000000pt" height="700.000000pt" viewBox="0 0 700.000000 700.000000"
 preserveAspectRatio="xMidYMid meet">
<metadata>
Created by potrace 1.11, written by Peter Selinger 2001-2013
</metadata>
<g transform="translate(0.000000,700.000000) scale(0.100000,-0.100000)"
fill="#000000" stroke="none">
<path d="M3205 6989 c-1013 -88 -1917 -592 -2520 -1403 -802 -1081 -907 -2571
-264 -3751 341 -626 860 -1132 1488 -1449 384 -194 746 -304 1196 -363 164
-21 587 -24 755 -5 772 89 1461 402 2024 920 940 864 1328 2205 1001 3457
-154 588 -450 1113 -875 1549 -564 578 -1284 934 -2090 1031 -162 19 -562 27
-715 14z m-596 -1654 c16 -8 37 -33 49 -57 22 -49 82 -231 82 -252 0 -8 9 -24
19 -37 l19 -24 1444 -5 1443 -5 42 -22 c73 -40 122 -129 108 -200 -8 -42 -617
-1427 -643 -1462 -32 -44 -70 -65 -130 -72 -31 -4 -456 -8 -944 -8 -660 -1
-894 -4 -913 -13 -25 -11 -285 -338 -285 -358 0 -7 415 -10 1240 -10 l1241 0
23 -23 c23 -23 23 -29 22 -180 -1 -128 -4 -159 -17 -172 -14 -15 -142 -16
-1307 -15 -1109 0 -1297 3 -1340 15 -194 58 -314 285 -254 481 18 58 43 98
153 244 174 233 183 248 177 313 -6 66 -465 1434 -490 1459 -16 16 -39 18
-211 18 -139 0 -198 4 -210 13 -14 10 -17 37 -18 185 -1 124 2 176 11 187 18
22 647 22 689 0z m-493 -1169 c19 -27 18 -60 -4 -80 -17 -15 -72 -16 -628 -14
l-608 3 -12 23 c-15 31 -6 72 20 82 11 5 290 8 619 7 580 -2 599 -3 613 -21z
m284 -355 c8 -6 14 -25 14 -46 0 -21 -6 -40 -14 -46 -9 -5 -260 -8 -610 -6
l-595 2 -9 27 c-7 18 -6 35 2 53 l12 25 592 0 c342 0 599 -4 608 -9z m-436
-327 c23 -22 21 -81 -3 -94 -13 -6 -223 -10 -613 -10 -654 0 -638 -2 -638 60
0 62 -16 60 642 60 529 0 598 -2 612 -16z m1011 -1279 c204 -54 333 -242 297
-436 -38 -203 -215 -342 -418 -326 -243 18 -414 259 -346 484 64 211 265 330
467 278z m2137 4 c122 -26 225 -106 275 -213 25 -55 28 -72 28 -166 0 -93 -3
-112 -27 -162 -37 -81 -108 -152 -187 -191 -61 -29 -74 -32 -166 -32 -91 0
-106 3 -165 31 -36 17 -86 52 -112 77 -178 178 -134 493 84 612 92 50 176 64
270 44z"/>
</g>
</svg>
